<svg width="48" height="48" viewBox="0 0 48 48" fill="none" xmlns="http://www.w3.org/2000/svg">
<rect width="48" height="48" rx="8" fill="#171717"/>
<path d="M27.5582 28.6492C27.5582 28.9935 27.2791 29.2726 26.9348 29.2726V29.2726C23.492 29.2726 20.7011 26.4816 20.7011 23.0388L20.7011 18.3635C20.7011 14.9207 23.492 12.1297 26.9349 12.1297V12.1297C27.2791 12.1297 27.5582 12.4088 27.5582 12.7531L27.5582 28.6492Z" fill="#9B9B9B"/>
<path d="M18.9868 18.3635C18.9868 14.9207 16.1959 12.1297 12.753 12.1297V12.1297C12.4088 12.1297 12.1297 12.4088 12.1297 12.7531V29.8959C12.1297 33.3387 14.9206 36.1297 18.3634 36.1297V36.1297C18.7077 36.1297 18.9868 35.8506 18.9868 35.5063V18.3635Z" fill="#F2F2F2"/>
<path d="M36.1296 30.3635C36.1296 26.9207 33.3387 24.1297 29.8959 24.1297V24.1297C29.5516 24.1297 29.2725 24.4088 29.2725 24.7531V29.8959C29.2725 33.3387 32.0634 36.1297 35.5063 36.1297V36.1297C35.8505 36.1297 36.1296 35.8506 36.1296 35.5063V30.3635Z" fill="#9B9B9B"/>
<path d="M20.701 23.0388C20.701 22.6945 20.9801 22.4154 21.3244 22.4154V22.4154C24.7672 22.4154 27.5582 25.2064 27.5582 28.6492V29.8959C27.5582 33.3387 24.7672 36.1297 21.3244 36.1297V36.1297C20.9801 36.1297 20.701 35.8506 20.701 35.5063V23.0388Z" fill="#F2F2F2"/>
</svg>
